<?xml version="1.0" encoding="UTF-8" standalone="no"?>
<svg width="22px" height="22px" viewBox="0 0 22 22" version="1.1" xmlns="http://www.w3.org/2000/svg" xmlns:xlink="http://www.w3.org/1999/xlink">
    <!-- Generator: Sketch 3.7.1 (28215) - http://www.bohemiancoding.com/sketch -->
    <title>Shape</title>
    <desc>Created with Sketch.</desc>
    <defs></defs>
    <g id="Page-1" stroke="none" stroke-width="1" fill="none" fill-rule="evenodd">
        <g id="Desktop-HD" transform="translate(-473.000000, -13.000000)" fill="#C0C0C0">
            <path d="M481.518149,13 C476.81964,13 473,16.8196404 473,21.5181495 C473,26.2166585 476.81964,30.0362989 481.518149,30.0362989 C483.376862,30.0362989 485.095937,29.4369464 486.497509,28.4234875 L493.08968,35 L494.498932,33.5907473 L487.985053,27.06121 C489.264933,25.5705644 490.036299,23.6333127 490.036299,21.5181495 C490.036299,16.8196404 486.216658,13 481.518149,13 L481.518149,13 Z M481.518149,14.0021352 C485.675065,14.0021352 489.034164,17.3612344 489.034164,21.5181495 C489.034164,25.6750645 485.675065,29.0341637 481.518149,29.0341637 C477.361234,29.0341637 474.002135,25.6750645 474.002135,21.5181495 C474.002135,17.3612344 477.361234,14.0021352 481.518149,14.0021352 L481.518149,14.0021352 Z" id="Shape"></path>
        </g>
    </g>
</svg>